# xmcd
#
# Track frame offsets:
# 150
# 27565
# 50404
# 70494
# 95746
# 122789
# 153218
# 172685
# 194352
# 216444
# 245033
# 274938
#
# Disc length: 4034 seconds
#
# Revision: 0
# Processed by: cddbd v1.5.1PL0 Copyright (c) Steve Scherf et al.
# Submitted via: Audion 3.0.2 (http://www.panic.com/audion/)
#
DISCID=b40fc00c
DTITLE=Nothin Personal - Really
DYEAR=1900
DGENRE=
TTITLE0=Only You
TTITLE1=Angel Baby
TTITLE2=Come and Play
TTITLE3=Walt
TTITLE4=True Blue
TTITLE5=Goodbye
TTITLE6=Mr. Complacent
TTITLE7=On Your Own
TTITLE8=Weakness Fed
TTITLE9=Hold Me Now
TTITLE10=Raise Me Up
TTITLE11=Simple Truth
EXTD=
EXTT0=
EXTT1=
EXTT2=
EXTT3=
EXTT4=
EXTT5=
EXTT6=
EXTT7=
EXTT8=
EXTT9=
EXTT10=
EXTT11=
PLAYORDER=
